<svg version="1" xmlns="http://www.w3.org/2000/svg" width="800" height="800" viewBox="0 0 600.000000 600.000000"><path d="M280 .6c-1.9.2-8.2.9-14 1.5-37.4 3.9-79.7 17.5-112.3 36.1C76.6 81.9 22.7 156 6 241 1.5 264.3.5 274.7.5 300c0 13.8.6 27.8 1.4 34 8.9 69.8 38 129.8 86.1 178 48.2 48.1 108.2 77.2 178 86.1 13.8 1.8 54.2 1.8 68 0 69.8-8.9 129.8-38 178-86.1 48.1-48.2 77.2-108.2 86.1-178 .8-6.2 1.4-20.2 1.4-34s-.6-27.8-1.4-34c-8.9-69.8-38-129.8-86.1-178-47.3-47.2-105.9-76.1-173.8-85.6C328.1 1 287.5-.3 280 .6zm54 29.9c47.1 5.6 92 24.4 125.2 52.3 13 11 26.3 26.3 33.3 38.4l2.7 4.8H104.8l2.7-4.8c7-12.1 20.3-27.4 33.3-38.4 38.2-32.1 89.7-51.2 146.7-54.2 10.1-.5 34.3.5 46.5 1.9zM324 227v84h-48V143h48v84zm-67.4-51.4c-.3.9-.6 12.1-.6 25V224l-7 4.5c-40.8 26.1-55.1 78.2-33.4 121.6 9.4 18.8 26.7 35.3 46.1 43.8 14 6.1 21.3 7.6 38.3 7.6 13.2 0 16.7-.4 23.5-2.3 21.9-6.3 38.9-17.7 51.5-34.3 10.5-14 16-27.1 18.6-44.3 5.4-36-11.5-72.2-43.2-92.3l-7.4-4.6v-24.9c0-18.9.3-24.8 1.2-24.8 2.4 0 14.3 5 22 9.3 18.8 10.2 38.1 27.2 49.2 43.2 33.3 47.9 34 110.5 1.8 159-20.3 30.6-52.6 52.3-89.2 60.2-12.1 2.6-43.9 2.6-56 0-69-14.8-116.3-76.1-112.7-146.2 1.1-20.3 5.2-35.7 14.7-55 15-30.3 41.3-54.5 73.8-68 6.8-2.9 9.7-3.2 8.8-.9z"/></svg>